<svg width="145" height="36" viewBox="0 0 145 36" fill="none" xmlns="http://www.w3.org/2000/svg">
<mask id="mask0" mask-type="alpha" maskUnits="userSpaceOnUse" x="0" y="0" width="18" height="26">
<path fill-rule="evenodd" clip-rule="evenodd" d="M0 0.841309H17.2272V25.8574H0V0.841309Z" fill="white"/>
</mask>
<g mask="url(#mask0)">
<path fill-rule="evenodd" clip-rule="evenodd" d="M12.2635 16.2287C12.2635 17.4188 12.205 18.6128 12.2839 19.7975C12.3373 20.5963 11.972 20.9298 11.3205 21.2043C8.5121 22.3878 5.48923 20.5947 5.17939 17.5629C5.04889 16.2837 5.05856 15.0196 5.46685 13.7961C6.27274 11.3818 9.07887 10.1696 11.3437 11.2136C11.9756 11.5047 12.337 11.869 12.2841 12.6595C12.2048 13.8443 12.2635 15.0385 12.2635 16.2287ZM16.9664 1.00817C16.4454 0.519724 15.3309 1.2419 14.4713 1.41649C12.2584 1.86552 12.2633 1.88856 12.2633 4.08964C12.2633 4.72836 12.2315 5.36913 12.2712 6.00555C12.3203 6.78993 12.2696 7.081 11.2679 6.83268C7.25467 5.83889 3.62891 7.28017 1.55439 10.5442C0.155777 12.745 -0.10624 15.1645 0.0331631 17.7286C0.405075 24.5673 6.30556 27.1829 11.4752 25.2255C11.6698 25.1518 11.9613 24.979 12.0557 25.0514C13.2638 25.9815 14.6367 25.2373 15.9071 25.4685C16.8422 25.6384 17.1971 25.3323 17.176 24.2773C17.1017 20.5735 17.147 16.8671 17.147 13.1618C17.147 9.9674 17.1536 6.77304 17.1429 3.57892C17.1399 2.68984 17.424 1.43723 16.9664 1.00817Z" fill="#021028"/>
</g>
<path fill-rule="evenodd" clip-rule="evenodd" d="M80.0673 13.7409C77.0846 14.3917 74.1376 15.2065 71.1129 15.9725C71.0109 13.2799 72.6807 10.7729 74.8941 10.1283C77.0167 9.51002 79.2454 10.4708 80.4934 12.5214C80.8623 13.1278 81.1635 13.5016 80.0673 13.7409ZM76.5057 6.52378C70.8502 6.35738 66.6342 11.0954 67.1972 16.8818C67.6462 21.4993 70.9565 24.9798 75.3215 25.4243C79.4166 25.8415 83.3227 23.0473 84.6888 18.6436C81.5697 19.2736 81.4023 19.3499 79.1256 21.1427C76.9142 22.884 73.7832 22.3049 72.1577 19.897C71.6914 19.206 71.723 18.9708 72.6026 18.7683C76.4553 17.8815 80.2871 16.9043 84.1342 15.9932C84.7447 15.8488 85.1456 15.7009 85.0543 14.9452C84.4738 10.1498 80.7994 6.64999 76.5057 6.52378Z" fill="#021028"/>
<path fill-rule="evenodd" clip-rule="evenodd" d="M112.309 14.043C109.421 14.75 106.541 15.4896 103.651 16.19C103.427 16.2443 102.999 16.4908 102.971 15.8636C102.85 13.1682 105.494 10.3537 109.164 10.3499C110.247 10.377 111.619 11.4963 112.641 13.1864C112.917 13.6438 112.892 13.9004 112.309 14.043ZM107.451 6.91694C103.513 7.22158 100.857 9.46362 99.6027 13.1472C98.3036 16.9619 99.1344 20.4706 102.006 23.316C104.395 25.6833 107.376 26.3368 110.554 25.3891C113.661 24.4629 115.63 22.2639 116.688 18.9292C115.583 19.2472 114.674 19.5165 113.76 19.7686C113.083 19.9555 112.443 20.0782 111.913 20.6977C109.403 23.635 105.488 23.0434 103.699 19.4046C107.92 18.3558 112.078 17.3169 116.241 16.2975C116.665 16.1936 117.054 16.2069 117.005 15.5687C116.625 10.6873 112.668 6.51322 107.451 6.91694Z" fill="#021028"/>
<path fill-rule="evenodd" clip-rule="evenodd" d="M133.847 14.0243C133.701 10.1436 132.057 7.80838 129.011 7.14406C126.509 6.59853 124.047 6.76877 121.895 8.85363C121.712 6.87321 120.309 7.35117 119.138 7.26029C118.313 7.19654 118.083 7.45177 118.091 8.29504C118.135 12.846 118.097 17.3981 118.123 21.9496C118.129 22.9966 117.646 24.4274 118.326 24.9865C118.967 25.5144 120.344 25.0848 121.385 25.1918C122.334 25.2891 122.466 24.8931 122.455 24.0513C122.409 20.3936 122.434 16.7348 122.438 13.0766C122.438 12.6634 122.389 12.2661 122.715 11.8857C123.71 10.7258 125.901 10.1313 127.481 10.6531C128.806 11.0903 129.544 12.3455 129.554 14.2394C129.566 16.7492 129.557 19.2588 129.557 21.7686C129.557 25.3912 129.556 25.3784 133.161 25.1875C133.683 25.1601 133.898 25.0728 133.894 24.4876C133.866 20.9996 133.979 17.5075 133.847 14.0243Z" fill="#021028"/>
<path fill-rule="evenodd" clip-rule="evenodd" d="M65.972 20.4186C65.4187 20.6903 64.9844 20.9294 64.5306 21.1216C61.8713 22.248 60.4569 21.35 60.3971 18.4646C60.3582 16.592 60.3859 14.7178 60.3851 12.8444C60.3841 11.0214 60.3849 11.0214 62.1709 11.0214C65.3536 11.0211 65.3319 11.0214 65.2686 7.80783C65.2551 7.11023 65.1086 6.81019 64.3541 6.85627C63.3406 6.91823 62.3187 6.83144 61.3045 6.8852C60.5932 6.92309 60.345 6.70984 60.3684 5.96514C60.4215 4.26581 60.3849 2.56367 60.3849 0.725586C59.7728 0.927058 59.3305 1.05608 58.8998 1.21787C57.837 1.61647 56.5129 1.76776 55.7909 2.50786C54.9835 3.33551 55.6375 4.76066 55.5025 5.91624C55.4925 6.00021 55.4936 6.08725 55.5017 6.17147C55.5488 6.64584 55.3618 6.95509 54.8652 6.86114C53.4775 6.59823 53.3386 7.37339 53.4562 8.45551C53.5152 9.00258 53.5111 9.56603 53.4557 10.1139C53.3796 10.8622 53.69 11.1312 54.3923 11.0199C55.2837 10.8785 55.5358 11.251 55.522 12.1427C55.4778 14.9943 55.4735 17.8487 55.5521 20.6992C55.6202 23.1655 57.2959 25.2448 59.524 25.6605C61.4108 26.0125 63.3052 25.8899 65.1849 25.4657C65.7267 25.3436 65.9974 25.1649 65.9824 24.562C65.9488 23.2139 65.972 21.8645 65.972 20.4186Z" fill="#021028"/>
<mask id="mask1" mask-type="alpha" maskUnits="userSpaceOnUse" x="135" y="1" width="10" height="25">
<path fill-rule="evenodd" clip-rule="evenodd" d="M135.144 1.39209H144.822V25.5265H135.144V1.39209Z" fill="white"/>
</mask>
<g mask="url(#mask1)">
<path fill-rule="evenodd" clip-rule="evenodd" d="M144.775 21.105C144.315 21.3047 143.873 21.5906 143.393 21.6897C141.057 22.1718 139.482 21.8341 139.421 19.0368C139.377 17.0382 139.386 15.0381 139.381 13.0384C139.375 10.6146 139.38 10.6146 141.837 10.6146C144.476 10.6146 144.456 10.6157 144.325 7.98346C144.298 7.43511 144.173 7.2426 143.609 7.26359C142.51 7.30455 141.406 7.23696 140.307 7.28944C139.603 7.32298 139.335 7.1233 139.364 6.37706C139.418 4.97469 139.393 3.56848 139.369 2.16432C139.364 1.884 139.541 1.27165 139.032 1.41296C137.74 1.77111 136.488 2.27671 135.24 2.77539C135.132 2.81815 135.156 3.24746 135.156 3.49731C135.152 9.03024 135.128 14.5632 135.163 20.0958C135.181 22.8932 136.545 24.7886 139.095 25.2837C140.989 25.6513 142.953 25.6551 144.822 24.9189C144.822 23.5094 144.822 22.5504 144.775 21.105Z" fill="#021028"/>
</g>
<path fill-rule="evenodd" clip-rule="evenodd" d="M95.0892 10.6719C95.0404 10.7889 94.9972 10.9079 94.9476 11.0247C94.016 13.2283 93.0839 15.4317 92.075 17.8168C90.7728 14.4474 89.567 11.2965 88.3274 8.15951C88.1778 7.78114 88.1755 7.21282 87.4849 7.23202C86.186 7.26888 84.8856 7.24277 83.5915 7.24277C83.5801 7.43759 83.5452 7.53307 83.575 7.60015C86.0606 13.2321 88.5579 18.859 91.0298 24.4972C91.2516 25.0033 91.5258 25.1666 92.0682 25.1976C92.709 25.2339 92.9397 24.9129 93.1623 24.4158L100.878 7.32725C96.6448 6.94325 96.6448 6.94325 95.0892 10.6719Z" fill="#021028"/>
<path fill-rule="evenodd" clip-rule="evenodd" d="M25.7022 7.70468C25.7052 6.99914 25.3944 6.91696 24.8533 7.04855C23.8724 7.2874 22.8986 7.55927 21.9136 7.77943C18.1487 8.6209 18.1474 8.61501 18.4779 12.5538C18.808 12.5013 19.1708 12.519 19.4628 12.3831C20.6623 11.824 20.7271 12.4391 20.7083 13.4265C20.6567 16.1051 20.6648 18.7859 20.7017 21.4647C20.7193 22.7649 20.1235 24.5999 20.9434 25.2228C21.8113 25.882 23.5328 25.3892 24.88 25.4381C25.4516 25.4585 25.7052 25.3287 25.7024 24.6754C25.6793 19.0186 25.6785 13.3615 25.7022 7.70468Z" fill="#021028"/>
<path fill-rule="evenodd" clip-rule="evenodd" d="M50.1977 7.20748C49.4165 7.49702 48.5579 7.56793 47.75 7.79526C46.6277 8.1109 44.9993 7.93042 44.4949 8.78009C43.9574 9.68505 44.3738 11.1627 44.3738 12.5325C44.6658 12.4849 44.935 12.4921 45.1606 12.3961C46.4498 11.849 46.6569 12.3738 46.6287 13.6113C46.546 17.2289 46.6249 20.85 46.5791 24.4685C46.5689 25.2642 46.7782 25.5046 47.5633 25.4462C48.5325 25.3737 49.5152 25.375 50.4849 25.4454C51.3033 25.5046 51.5447 25.2603 51.5383 24.4097C51.4971 19.0024 51.4869 13.5942 51.5414 8.18693C51.5531 7.01753 51.2346 6.82322 50.1977 7.20748Z" fill="#021028"/>
<path fill-rule="evenodd" clip-rule="evenodd" d="M48.7349 0.390307C47.1228 0.410531 45.6667 1.86973 45.6388 3.49328C45.6131 4.99959 47.1071 6.49847 48.652 6.51613C50.2592 6.53431 51.7344 5.05821 51.7272 3.43901C51.7201 1.89047 50.2294 0.371619 48.7349 0.390307Z" fill="#32DA9D"/>
<path fill-rule="evenodd" clip-rule="evenodd" d="M22.8497 0.389066C21.2605 0.360906 19.7302 1.84673 19.7116 3.43572C19.6935 4.96455 21.142 6.46958 22.676 6.51591C24.2717 6.56404 25.7655 5.10894 25.7845 3.4882C25.8026 1.94631 24.3534 0.41569 22.8497 0.389066Z" fill="#32DA9D"/>
<path fill-rule="evenodd" clip-rule="evenodd" d="M34.8633 10.1112C36.481 10.1068 37.5692 11.2457 37.5743 12.9484C37.5802 14.7755 36.4967 15.9981 34.8883 15.9802C33.2175 15.9618 32.0414 14.6718 32.0641 12.8821C32.0849 11.2122 33.193 10.1155 34.8633 10.1112ZM39.743 21.2538C38.3464 20.889 36.9465 20.7254 35.4825 20.9727C34.465 21.1445 33.4202 21.645 32.2683 21.1742C32.8445 20.2388 33.537 19.9436 34.5514 20.0475C41.2436 20.7329 43.9419 14.9478 42.1299 10.3157C40.9788 7.37323 38.4158 6.07685 35.3273 5.78168C31.7771 5.44274 28.1717 7.64485 27.3208 10.8825C26.5589 13.7807 27.2554 16.343 29.5897 18.3672C29.2417 18.7 28.9196 18.97 28.6418 19.2801C26.3638 21.8232 27.2447 24.5851 30.5502 25.3188C32.3787 25.7248 34.1671 25.0831 35.9745 25.1506C36.8666 25.1839 38.2144 24.836 38.3077 26.1969C38.3929 27.4383 37.1065 27.5453 36.1821 27.7257C34.4873 28.0565 32.8478 27.7826 31.2154 26.917V29.487C31.2154 32.1039 32.0636 32.3888 35.3309 32.3888C37.3187 32.1837 39.2306 31.7519 40.9182 30.5922C42.891 29.2364 43.5094 27.2992 43.1856 25.0388C42.8996 23.0412 41.6923 21.7635 39.743 21.2538Z" fill="#021028"/>
</svg>
