<svg width="1201" height="242" viewBox="0 0 1201 242" fill="none" xmlns="http://www.w3.org/2000/svg">
<mask id="mask0" mask-type="alpha" maskUnits="userSpaceOnUse" x="0" y="3" width="143" height="190">
<path fill-rule="evenodd" clip-rule="evenodd" d="M0 3.42419H142.782V192.663H0V3.42419Z" fill="white"/>
</mask>
<g mask="url(#mask0)">
<path fill-rule="evenodd" clip-rule="evenodd" d="M101.64 119.824C101.64 128.827 101.155 137.859 101.809 146.821C102.252 152.863 99.224 155.387 93.8244 157.463C70.5478 166.415 45.4939 152.852 42.9259 129.917C41.8443 120.24 41.9244 110.677 45.3084 101.423C51.9877 83.1588 75.2453 73.9892 94.0163 81.8865C99.2535 84.0884 102.25 86.8441 101.811 92.8242C101.153 101.787 101.64 110.821 101.64 119.824ZM140.619 4.68646C136.301 0.991507 127.064 6.45454 119.94 7.77527C101.599 11.172 101.639 11.3463 101.639 27.9968C101.639 32.8285 101.376 37.6757 101.705 42.49C102.112 48.4237 101.692 50.6255 93.3892 48.7471C60.1273 41.2293 30.0765 52.1322 12.8826 76.8233C1.29067 93.4719 -0.880962 111.774 0.274433 131.171C3.35689 182.904 52.2609 202.69 95.1075 187.883C96.7204 187.325 99.1366 186.018 99.9188 186.566C109.932 193.602 121.311 187.972 131.84 189.721C139.59 191.007 142.531 188.691 142.356 180.71C141.741 152.692 142.116 124.654 142.116 96.6246C142.116 72.4602 142.171 48.2958 142.082 24.1334C142.057 17.4077 144.412 7.93213 140.619 4.68646Z" fill="white"/>
</g>
<path fill-rule="evenodd" clip-rule="evenodd" d="M663.608 101.006C638.887 105.929 614.462 112.093 589.393 117.887C588.547 97.5186 602.387 78.5539 620.732 73.6776C638.324 69.0008 656.796 76.2687 667.14 91.7806C670.197 96.3683 672.693 99.1957 663.608 101.006ZM634.089 46.4103C587.215 45.1515 552.273 80.9934 556.939 124.765C560.66 159.695 588.097 186.025 624.274 189.387C658.215 192.543 690.589 171.406 701.912 138.093C676.061 142.859 674.673 143.436 655.803 156.998C637.475 170.17 611.525 165.79 598.052 147.574C594.188 142.348 594.449 140.568 601.74 139.036C633.671 132.328 665.43 124.936 697.315 118.044C702.375 116.951 705.698 115.832 704.941 110.115C700.13 73.8397 669.676 47.365 634.089 46.4103Z" fill="white"/>
<path fill-rule="evenodd" clip-rule="evenodd" d="M930.834 103.29C906.896 108.638 883.024 114.233 859.075 119.531C857.218 119.942 853.669 121.807 853.437 117.062C852.436 96.6723 874.35 75.3818 904.768 75.3527C913.744 75.558 925.118 84.0247 933.584 96.8098C935.875 100.27 935.662 102.211 930.834 103.29ZM890.572 49.3841C857.934 51.6886 835.918 68.649 825.522 96.5142C814.754 125.371 821.64 151.913 845.442 173.438C865.244 191.346 889.948 196.29 916.29 189.121C942.037 182.114 958.361 165.479 967.125 140.253C957.966 142.659 950.433 144.696 942.858 146.603C937.245 148.017 931.943 148.945 927.555 153.631C906.752 175.851 874.303 171.376 859.473 143.85C894.46 135.915 928.921 128.057 963.421 120.346C966.94 119.559 970.163 119.66 969.752 114.832C966.602 77.9058 933.813 46.3302 890.572 49.3841Z" fill="white"/>
<path fill-rule="evenodd" clip-rule="evenodd" d="M1109.35 103.148C1108.13 73.7914 1094.51 56.1261 1069.26 51.1007C1048.53 46.9739 1028.12 48.2617 1010.29 64.033C1008.77 49.0518 997.142 52.6674 987.433 51.9799C980.599 51.4977 978.689 53.4285 978.759 59.8075C979.119 94.2337 978.809 128.67 979.02 163.1C979.069 171.02 975.071 181.843 980.701 186.073C986.014 190.066 997.427 186.817 1006.06 187.626C1013.93 188.362 1015.02 185.366 1014.93 178.999C1014.55 151.329 1014.75 123.652 1014.78 95.9785C1014.79 92.8529 1014.38 89.8474 1017.08 86.9696C1025.33 78.1951 1043.49 73.6984 1056.59 77.6451C1067.56 80.9527 1073.69 90.4477 1073.76 104.774C1073.87 123.76 1073.79 142.744 1073.79 161.73C1073.79 189.135 1073.78 189.038 1103.66 187.593C1107.98 187.386 1109.77 186.726 1109.73 182.299C1109.5 155.913 1110.44 129.496 1109.35 103.148Z" fill="white"/>
<path fill-rule="evenodd" clip-rule="evenodd" d="M546.784 151.513C542.198 153.568 538.599 155.376 534.838 156.831C512.797 165.352 501.074 158.558 500.579 136.731C500.256 122.565 500.486 108.388 500.48 94.2161C500.471 80.4258 500.478 80.4258 515.281 80.4258C541.659 80.4239 541.479 80.4258 540.954 56.1162C540.843 50.8391 539.628 48.5695 533.375 48.9181C524.975 49.3867 516.506 48.7302 508.1 49.1369C502.204 49.4235 500.147 47.8104 500.341 42.1769C500.781 29.3221 500.478 16.4459 500.478 2.54141C495.405 4.06548 491.738 5.04151 488.169 6.26541C479.36 9.28063 468.386 10.4251 462.402 16.0237C455.71 22.2846 461.131 33.0654 460.011 41.807C459.929 42.4422 459.938 43.1007 460.005 43.7378C460.395 47.3262 458.846 49.6656 454.73 48.9549C443.229 46.966 442.078 52.8299 443.052 61.0157C443.541 65.1542 443.507 69.4165 443.047 73.5607C442.417 79.2213 444.989 81.2566 450.81 80.4142C458.198 79.3452 460.288 82.1629 460.174 88.908C459.807 110.479 459.771 132.072 460.423 153.635C460.988 172.292 474.876 188.021 493.343 191.166C508.981 193.829 524.682 192.901 540.261 189.692C544.752 188.768 546.995 187.417 546.871 182.856C546.592 172.658 546.784 162.451 546.784 151.513Z" fill="white"/>
<mask id="mask1" mask-type="alpha" maskUnits="userSpaceOnUse" x="1120" y="7" width="81" height="184">
<path fill-rule="evenodd" clip-rule="evenodd" d="M1120.09 7.59286H1200.31V190.162H1120.09V7.59286Z" fill="white"/>
</mask>
<g mask="url(#mask1)">
<path fill-rule="evenodd" clip-rule="evenodd" d="M1199.92 156.715C1196.11 158.225 1192.44 160.388 1188.46 161.138C1169.1 164.784 1156.05 162.23 1155.54 141.069C1155.18 125.95 1155.25 110.82 1155.21 95.6937C1155.16 77.3584 1155.2 77.3584 1175.57 77.3584C1197.44 77.3584 1197.27 77.3661 1196.19 57.4544C1195.96 53.3063 1194.92 51.85 1190.26 52.0088C1181.14 52.3187 1171.99 51.8074 1162.88 52.2044C1157.05 52.4581 1154.83 50.9476 1155.07 45.3025C1155.52 34.6941 1155.31 24.0566 1155.11 13.4346C1155.07 11.314 1156.54 6.68177 1152.32 7.75075C1141.61 10.46 1131.23 14.2847 1120.89 18.0571C1120 18.3805 1120.19 21.6281 1120.19 23.5182C1120.16 65.373 1119.96 107.228 1120.25 149.081C1120.4 170.242 1131.7 184.58 1152.84 188.325C1168.53 191.106 1184.81 191.135 1200.31 185.565C1200.31 174.903 1200.31 167.648 1199.92 156.715Z" fill="white"/>
</g>
<path fill-rule="evenodd" clip-rule="evenodd" d="M788.113 77.7904C787.708 78.6754 787.349 79.5759 786.938 80.459C779.217 97.1289 771.492 113.797 763.13 131.84C752.338 106.351 742.344 82.5156 732.07 58.785C730.83 55.9228 730.811 51.6236 725.087 51.7689C714.321 52.0477 703.543 51.8502 692.818 51.8502C692.723 53.3239 692.434 54.0463 692.681 54.5536C713.282 97.158 733.98 139.724 754.467 182.374C756.305 186.203 758.578 187.439 763.073 187.673C768.384 187.948 770.297 185.519 772.142 181.759L836.087 52.4893C801.005 49.5844 801.005 49.5844 788.113 77.7904Z" fill="white"/>
<path fill-rule="evenodd" clip-rule="evenodd" d="M213.023 55.3434C213.048 50.0063 210.472 49.3846 205.987 50.38C197.857 52.1868 189.786 54.2435 181.623 55.9089C150.418 62.2744 150.408 62.2298 153.147 92.0257C155.883 91.6287 158.89 91.7624 161.31 90.7341C171.251 86.5046 171.789 91.1582 171.633 98.6275C171.205 118.89 171.273 139.169 171.578 159.434C171.724 169.269 166.786 183.151 173.581 187.862C180.775 192.849 195.042 189.121 206.208 189.491C210.946 189.646 213.048 188.664 213.025 183.722C212.833 140.93 212.827 98.1356 213.023 55.3434Z" fill="white"/>
<path fill-rule="evenodd" clip-rule="evenodd" d="M416.047 51.5816C409.572 53.7719 402.456 54.3083 395.76 56.028C386.457 58.4158 372.962 57.0505 368.781 63.4779C364.326 70.3237 367.777 81.5015 367.777 91.864C370.197 91.5038 372.428 91.558 374.298 90.8318C384.984 86.6934 386.7 90.6633 386.466 100.025C385.781 127.39 386.434 154.783 386.055 182.156C385.97 188.175 387.706 189.993 394.212 189.552C402.245 189.004 410.39 189.013 418.427 189.546C425.21 189.993 427.21 188.146 427.158 181.711C426.816 140.807 426.732 99.8949 427.183 58.9909C427.28 50.1447 424.64 48.6749 416.047 51.5816Z" fill="white"/>
<path fill-rule="evenodd" clip-rule="evenodd" d="M403.921 0.0120029C390.56 0.164991 378.492 11.2034 378.26 23.485C378.047 34.8798 390.429 46.2183 403.234 46.3519C416.555 46.4894 428.781 35.3232 428.722 23.0745C428.663 11.3602 416.308 -0.129366 403.921 0.0120029Z" fill="#0DFC89"/>
<path fill-rule="evenodd" clip-rule="evenodd" d="M189.382 0.00298028C176.211 -0.210041 163.527 11.0297 163.373 23.05C163.224 34.6151 175.229 46.0001 187.942 46.3506C201.168 46.7147 213.549 35.7073 213.707 23.447C213.857 11.7831 201.845 0.204382 189.382 0.00298028Z" fill="#0DFC89"/>
<path fill-rule="evenodd" clip-rule="evenodd" d="M289.974 73.4261C303.381 73.3932 312.401 82.009 312.443 94.889C312.491 108.71 303.512 117.959 290.18 117.824C276.333 117.684 266.585 107.926 266.773 94.3875C266.946 81.7553 276.13 73.4591 289.974 73.4261ZM330.417 157.716C318.842 154.957 307.24 153.719 295.106 155.59C286.673 156.89 278.013 160.676 268.467 157.114C273.242 150.038 278.981 147.805 287.389 148.591C342.855 153.776 365.218 110.013 350.2 74.9731C340.66 52.7143 319.418 42.9076 293.82 40.6747C264.395 38.1107 234.513 54.769 227.461 79.2607C221.146 101.184 226.919 120.567 246.265 135.88C243.381 138.397 240.712 140.44 238.409 142.786C219.529 162.023 226.83 182.917 254.227 188.467C269.382 191.538 284.204 186.684 299.184 187.195C306.578 187.447 317.748 184.815 318.522 195.11C319.228 204.5 308.566 205.309 300.904 206.675C286.858 209.177 273.27 207.105 259.74 200.557V219.998C259.74 239.794 266.769 241.949 293.85 241.949C310.324 240.398 326.171 237.131 340.158 228.358C356.509 218.102 361.634 203.448 358.95 186.349C356.58 171.238 346.574 161.572 330.417 157.716Z" fill="white"/>
</svg>
